<?xml version="1.0" encoding="iso-8859-1"?>
<!-- Uploaded to: SVG Repo, www.svgrepo.com, Generator: SVG Repo Mixer Tools -->
<svg version="1.1" id="Layer_1" xmlns="http://www.w3.org/2000/svg" xmlns:xlink="http://www.w3.org/1999/xlink" 
	 viewBox="0 0 512 512" xml:space="preserve">
<polygon style="fill:#FFFFFF;" points="411.826,278.26 378.411,278.26 378.411,244.87 345.02,244.87 345.02,33.391 311.629,33.391 
	311.629,0 200.324,0 200.324,33.391 166.933,33.391 166.933,244.87 133.542,244.87 133.542,278.26 100.174,278.26 100.174,445.216 
	133.542,445.216 133.542,445.217 133.542,478.609 166.933,478.609 166.933,512 345.02,512 345.02,478.609 378.411,478.609 
	378.411,445.217 411.803,445.217 411.803,445.216 411.826,445.216 "/>
<rect x="133.565" y="244.87" width="33.391" height="33.391"/>
<rect x="133.565" y="445.217" width="33.391" height="33.391"/>
<rect x="166.957" y="478.609" width="178.087" height="33.391"/>
<rect x="100.174" y="278.261" width="33.391" height="166.957"/>
<rect x="345.043" y="244.87" width="33.391" height="33.391"/>
<rect x="345.043" y="445.217" width="33.391" height="33.391"/>
<rect x="378.435" y="278.261" width="33.391" height="166.957"/>
<rect x="200.348" width="111.304" height="33.391"/>
<rect x="166.957" y="33.391" width="33.391" height="211.478"/>
<rect x="311.652" y="33.391" width="33.391" height="211.478"/>
<polygon style="fill:#006DF0;" points="166.957,356.174 166.957,411.826 200.348,411.826 200.348,411.826 200.348,445.217 
	311.652,445.217 311.652,411.826 311.652,411.826 345.043,411.826 345.043,356.174 "/>
</svg>