<!DOCTYPE svg PUBLIC "-//W3C//DTD SVG 1.1//EN" "http://www.w3.org/Graphics/SVG/1.1/DTD/svg11.dtd">
<!-- Uploaded to: SVG Repo, www.svgrepo.com, Transformed by: SVG Repo Mixer Tools -->
<svg fill="#ffffff" width="800px" height="800px" viewBox="0 0 400 400" id="Search" version="1.1" xml:space="preserve" xmlns="http://www.w3.org/2000/svg" xmlns:xlink="http://www.w3.org/1999/xlink" stroke="#ffffff">
<g id="SVGRepo_bgCarrier" stroke-width="0"/>
<g id="SVGRepo_tracerCarrier" stroke-linecap="round" stroke-linejoin="round"/>
<g id="SVGRepo_iconCarrier"> <g id="XMLID_14_"> <polygon id="XMLID_15_" points="160,26.7 186.7,26.7 213.3,26.7 213.3,0 186.7,0 160,0 133.3,0 106.7,0 106.7,26.7 133.3,26.7 "/> <polygon id="XMLID_126_" points="106.7,53.3 106.7,26.7 80,26.7 53.3,26.7 53.3,53.3 80,53.3 "/> <polygon id="XMLID_127_" points="240,53.3 266.7,53.3 266.7,26.7 240,26.7 213.3,26.7 213.3,53.3 "/> <polygon id="XMLID_128_" points="53.3,80 53.3,53.3 26.7,53.3 26.7,80 26.7,106.7 53.3,106.7 "/> <polygon id="XMLID_130_" points="266.7,106.7 293.3,106.7 293.3,80 293.3,53.3 266.7,53.3 266.7,80 "/> <rect height="26.7" id="XMLID_131_" width="26.7" x="80" y="106.7"/> <rect height="26.7" id="XMLID_132_" width="26.7" x="106.7" y="80"/> <polygon id="XMLID_133_" points="293.3,160 293.3,186.7 293.3,213.3 320,213.3 320,186.7 320,160 320,133.3 320,106.7 293.3,106.7 293.3,133.3 "/> <polygon id="XMLID_134_" points="26.7,160 26.7,133.3 26.7,106.7 0,106.7 0,133.3 0,160 0,186.7 0,213.3 26.7,213.3 26.7,186.7 "/> <polygon id="XMLID_135_" points="53.3,213.3 26.7,213.3 26.7,240 26.7,266.7 53.3,266.7 53.3,240 "/> <polygon id="XMLID_136_" points="293.3,240 293.3,213.3 266.7,213.3 266.7,240 266.7,266.7 293.3,266.7 "/> <polygon id="XMLID_137_" points="80,266.7 53.3,266.7 53.3,293.3 80,293.3 106.7,293.3 106.7,266.7 "/> <polygon id="XMLID_138_" points="213.3,266.7 213.3,293.3 240,293.3 266.7,293.3 266.7,266.7 240,266.7 "/> <polygon id="XMLID_139_" points="160,293.3 133.3,293.3 106.7,293.3 106.7,320 133.3,320 160,320 186.7,320 213.3,320 213.3,293.3 186.7,293.3 "/> <rect height="26.7" id="XMLID_140_" width="26.7" x="293.3" y="293.3"/> <rect height="26.7" id="XMLID_141_" width="26.7" x="320" y="320"/> <rect height="26.7" id="XMLID_142_" width="26.7" x="346.7" y="346.7"/> <rect height="26.7" id="XMLID_143_" width="26.7" x="373.3" y="373.3"/> </g> </g>
</svg>